<svg xmlns="http://www.w3.org/2000/svg" viewBox="0 0 400 400" width="400" height="400" role="img"><rect width="400" height="400" fill="#4a7a4a"/><rect x="150" y="0" width="100" height="400" fill="#54585f"/><g fill="#e7e7e7"><rect x="198" y="14" width="4" height="26"/><rect x="198" y="56" width="4" height="26"/><rect x="198" y="98" width="4" height="26"/><rect x="198" y="290" width="4" height="26"/><rect x="198" y="332" width="4" height="26"/><rect x="198" y="374" width="4" height="26"/></g><g><rect x="156" y="190" width="10" height="44" fill="#eef0f2"/><rect x="174" y="190" width="10" height="44" fill="#eef0f2"/><rect x="192" y="190" width="10" height="44" fill="#eef0f2"/><rect x="210" y="190" width="10" height="44" fill="#eef0f2"/><rect x="228" y="190" width="10" height="44" fill="#eef0f2"/></g><g fill="#1c1c1c"><circle cx="232" cy="202" r="5"/><rect x="228" y="208" width="8" height="16" rx="3"/><rect x="225" y="222" width="5" height="12" rx="2"/><rect x="234" y="222" width="5" height="12" rx="2"/></g><polygon points="200,293 190,309 210,309" fill="#9fc0ff"/><rect x="182" y="305" width="36" height="60" rx="8" fill="#2f6df6" stroke="#0b1d4d" stroke-width="2"/><rect x="186" y="310" width="28" height="13" rx="3" fill="#cfe0ff"/><text x="200" y="340" font-family="sans-serif" font-size="14" fill="#fff" text-anchor="middle" font-weight="800">DU</text></svg>
